<svg width="32" height="32" viewBox="0 0 32 32" fill="none" xmlns="http://www.w3.org/2000/svg">
<path d="M0 10.7332C0 6.93664 0 5.03833 0.750577 3.59341C1.38308 2.37579 2.37588 1.38299 3.5935 0.750486C5.03843 -9.15527e-05 6.93673 -9.15527e-05 10.7333 -9.15527e-05H21.2667C25.0633 -9.15527e-05 26.9616 -9.15527e-05 28.4065 0.750486C29.6241 1.38299 30.6169 2.37579 31.2494 3.59341C32 5.03833 32 6.93664 32 10.7332V21.2666C32 25.0632 32 26.9615 31.2494 28.4064C30.6169 29.624 29.6241 30.6168 28.4065 31.2493C26.9616 31.9999 25.0633 31.9999 21.2667 31.9999H10.7333C6.93673 31.9999 5.03843 31.9999 3.5935 31.2493C2.37588 30.6168 1.38308 29.624 0.750577 28.4064C0 26.9615 0 25.0632 0 21.2666V10.7332Z" fill="url(#paint0_linear_54_1159)"/>
<path d="M22.2222 20.4444L22.9333 16H18.6666V12.8889C18.6666 11.6444 19.1111 10.6666 21.0666 10.6666H23.1111V6.57775C21.9555 6.39998 20.7111 6.2222 19.5555 6.2222C15.9111 6.2222 13.3333 8.44442 13.3333 12.4444V16H9.33331V20.4444H13.3333V32C15.1111 32 16.8889 32 18.6666 32V20.4444H22.2222Z" fill="white"/>
<defs>
<linearGradient id="paint0_linear_54_1159" x1="16" y1="31.0649" x2="16" y2="-9.15527e-05" gradientUnits="userSpaceOnUse">
<stop stop-color="#0062E0"/>
<stop offset="1" stop-color="#19AFFF"/>
</linearGradient>
</defs>
</svg>
