<svg width="32" height="32" viewBox="0 0 32 32" fill="none" xmlns="http://www.w3.org/2000/svg">
<g clip-path="url(#clip0_54_1162)">
<path d="M0.0182495 10.7333C0.0182495 6.93673 0.0182495 5.03843 0.768827 3.5935C1.40133 2.37588 2.39413 1.38308 3.61175 0.750577C5.05668 0 6.95498 0 10.7516 0H21.2849C25.0815 0 26.9798 0 28.4247 0.750577C29.6424 1.38308 30.6352 2.37588 31.2677 3.5935C32.0182 5.03843 32.0182 6.93673 32.0182 10.7333V21.2667C32.0182 25.0633 32.0182 26.9616 31.2677 28.4065C30.6352 29.6241 29.6424 30.6169 28.4247 31.2494C26.9798 32 25.0815 32 21.2849 32H10.7516C6.95498 32 5.05668 32 3.61175 31.2494C2.39413 30.6169 1.40133 29.6241 0.768827 28.4065C0.0182495 26.9616 0.0182495 25.0633 0.0182495 21.2667V10.7333Z" fill="url(#paint0_radial_54_1162)"/>
<path d="M0.0182495 10.7333C0.0182495 6.93673 0.0182495 5.03843 0.768827 3.5935C1.40133 2.37588 2.39413 1.38308 3.61175 0.750577C5.05668 0 6.95498 0 10.7516 0H21.2849C25.0815 0 26.9798 0 28.4247 0.750577C29.6424 1.38308 30.6352 2.37588 31.2677 3.5935C32.0182 5.03843 32.0182 6.93673 32.0182 10.7333V21.2667C32.0182 25.0633 32.0182 26.9616 31.2677 28.4065C30.6352 29.6241 29.6424 30.6169 28.4247 31.2494C26.9798 32 25.0815 32 21.2849 32H10.7516C6.95498 32 5.05668 32 3.61175 31.2494C2.39413 30.6169 1.40133 29.6241 0.768827 28.4065C0.0182495 26.9616 0.0182495 25.0633 0.0182495 21.2667V10.7333Z" fill="url(#paint1_radial_54_1162)"/>
<path d="M16.0004 4.36353C12.8403 4.36353 12.4437 4.37734 11.2025 4.43383C9.96378 4.49056 9.11823 4.68668 8.37837 4.97443C7.61306 5.27165 6.96387 5.66922 6.3171 6.31625C5.66985 6.96304 5.27228 7.61225 4.97411 8.37734C4.68564 9.11746 4.48928 9.96328 4.43352 11.2016C4.37801 12.4428 4.36346 12.8396 4.36346 15.9999C4.36346 19.1601 4.37752 19.5555 4.43377 20.7967C4.49073 22.0355 4.68685 22.8811 4.97435 23.621C5.2718 24.3863 5.66936 25.0355 6.31637 25.6823C6.9629 26.3296 7.61209 26.7281 8.37692 27.0253C9.11726 27.3131 9.96305 27.5092 11.2016 27.5659C12.4427 27.6224 12.8391 27.6363 15.999 27.6363C19.1594 27.6363 19.5548 27.6224 20.7959 27.5659C22.0347 27.5092 22.8812 27.3131 23.6215 27.0253C24.3866 26.7281 25.0348 26.3296 25.6814 25.6823C26.3286 25.0355 26.7262 24.3863 27.0244 23.6212C27.3104 22.8811 27.5068 22.0353 27.5649 20.797C27.6207 19.5558 27.6352 19.1601 27.6352 15.9999C27.6352 12.8396 27.6207 12.443 27.5649 11.2018C27.5068 9.96304 27.3104 9.11746 27.0244 8.37759C26.7262 7.61225 26.3286 6.96304 25.6814 6.31625C25.0341 5.66898 24.3869 5.2714 23.6208 4.97443C22.879 4.68668 22.033 4.49056 20.7942 4.43383C19.5531 4.37734 19.1579 4.36353 15.9968 4.36353H16.0004ZM14.9566 6.46049C15.2664 6.46001 15.6121 6.46049 16.0004 6.46049C19.1073 6.46049 19.4755 6.47165 20.7024 6.5274C21.8369 6.57928 22.4526 6.76886 22.8628 6.92813C23.4058 7.13904 23.7929 7.39116 24.2 7.79843C24.6072 8.20571 24.8593 8.59359 25.0707 9.13662C25.23 9.54631 25.4198 10.1621 25.4714 11.2966C25.5272 12.5233 25.5393 12.8918 25.5393 15.9972C25.5393 19.1027 25.5272 19.4712 25.4714 20.6978C25.4196 21.8324 25.23 22.4481 25.0707 22.8578C24.8598 23.4009 24.6072 23.7875 24.2 24.1946C23.7927 24.6018 23.406 24.8539 22.8628 25.0649C22.4531 25.2249 21.8369 25.4139 20.7024 25.4658C19.4757 25.5216 19.1073 25.5337 16.0004 25.5337C12.8934 25.5337 12.5252 25.5216 11.2985 25.4658C10.164 25.4135 9.54828 25.2239 9.13786 25.0646C8.59485 24.8537 8.20698 24.6016 7.79972 24.1943C7.39246 23.787 7.14035 23.4001 6.92896 22.8569C6.76969 22.4472 6.57988 21.8314 6.52825 20.6969C6.47249 19.4702 6.46134 19.1017 6.46134 15.9943C6.46134 12.8869 6.47249 12.5204 6.52825 11.2937C6.58012 10.1592 6.76969 9.5434 6.92896 9.13322C7.13986 8.59019 7.39246 8.20231 7.79972 7.79504C8.20698 7.38777 8.59485 7.13565 9.13786 6.92425C9.54803 6.76425 10.164 6.57516 11.2985 6.52304C12.3719 6.47456 12.7879 6.46001 14.9566 6.45759V6.46049ZM22.2116 8.39262C21.4408 8.39262 20.8153 9.01734 20.8153 9.78849C20.8153 10.5594 21.4408 11.1849 22.2116 11.1849C22.9825 11.1849 23.608 10.5594 23.608 9.78849C23.608 9.01759 22.9825 8.39213 22.2116 8.39213V8.39262ZM16.0004 10.0241C12.7004 10.0241 10.0249 12.6998 10.0249 15.9999C10.0249 19.3 12.7004 21.9744 16.0004 21.9744C19.3005 21.9744 21.975 19.3 21.975 15.9999C21.975 12.6998 19.3002 10.0241 16.0002 10.0241H16.0004ZM16.0004 12.1211C18.1424 12.1211 19.8791 13.8576 19.8791 15.9999C19.8791 18.1419 18.1424 19.8787 16.0004 19.8787C13.8582 19.8787 12.1218 18.1419 12.1218 15.9999C12.1218 13.8576 13.8582 12.1211 16.0004 12.1211Z" fill="white"/>
</g>
<defs>
<radialGradient id="paint0_radial_54_1162" cx="0" cy="0" r="1" gradientUnits="userSpaceOnUse" gradientTransform="translate(8.51829 34.4647) rotate(-90) scale(31.7144 29.4969)">
<stop stop-color="#FFDD55"/>
<stop offset="0.1" stop-color="#FFDD55"/>
<stop offset="0.5" stop-color="#FF543E"/>
<stop offset="1" stop-color="#C837AB"/>
</radialGradient>
<radialGradient id="paint1_radial_54_1162" cx="0" cy="0" r="1" gradientUnits="userSpaceOnUse" gradientTransform="translate(-5.34192 2.30523) rotate(78.6806) scale(14.1765 58.4359)">
<stop stop-color="#3771C8"/>
<stop offset="0.128" stop-color="#3771C8"/>
<stop offset="1" stop-color="#6600FF" stop-opacity="0"/>
</radialGradient>
<clipPath id="clip0_54_1162">
<rect width="32" height="32" fill="white"/>
</clipPath>
</defs>
</svg>
