<svg width="32" height="32" viewBox="0 0 32 32" fill="none" xmlns="http://www.w3.org/2000/svg">
<g clip-path="url(#clip0_54_1154)">
<path d="M0 10.7342C0 6.93761 0 5.03931 0.750577 3.59439C1.38308 2.37677 2.37588 1.38397 3.5935 0.751462C5.03843 0.00088501 6.93673 0.00088501 10.7333 0.00088501H21.2667C25.0633 0.00088501 26.9616 0.00088501 28.4065 0.751462C29.6241 1.38397 30.6169 2.37677 31.2494 3.59439C32 5.03931 32 6.93761 32 10.7342V21.2676C32 25.0642 32 26.9625 31.2494 28.4074C30.6169 29.625 29.6241 30.6178 28.4065 31.2503C26.9616 32.0009 25.0633 32.0009 21.2667 32.0009H10.7333C6.93673 32.0009 5.03843 32.0009 3.5935 31.2503C2.37588 30.6178 1.38308 29.625 0.750577 28.4074C0 26.9625 0 25.0642 0 21.2676V10.7342Z" fill="url(#paint0_linear_54_1154)"/>
<path d="M12.3334 24.5007C11.6854 24.5007 11.7955 24.2561 11.5721 23.6391L9.66669 17.3684L24.3334 8.66739" fill="#C8DAEA"/>
<path d="M12.3333 24.5008C12.8333 24.5008 13.0542 24.2721 13.3333 24.0008L16 21.4078L12.6736 19.402" fill="#A9C9DD"/>
<path d="M12.6734 19.4024L20.7334 25.3572C21.6532 25.8647 22.317 25.6019 22.5461 24.5033L25.8269 9.04278C26.1628 7.69608 25.3136 7.08528 24.4337 7.48475L5.16867 14.9132C3.85365 15.4407 3.86132 16.1743 4.92897 16.5012L9.8728 18.0443L21.3183 10.8235C21.8586 10.4958 22.3545 10.672 21.9475 11.0332" fill="url(#paint1_linear_54_1154)"/>
</g>
<defs>
<linearGradient id="paint0_linear_54_1154" x1="21.3344" y1="5.33529" x2="13.3344" y2="24.0009" gradientUnits="userSpaceOnUse">
<stop stop-color="#37AEE2"/>
<stop offset="1" stop-color="#1E96C8"/>
</linearGradient>
<linearGradient id="paint1_linear_54_1154" x1="18.5009" y1="15.3338" x2="21.6307" y2="22.456" gradientUnits="userSpaceOnUse">
<stop stop-color="#EFF7FC"/>
<stop offset="1" stop-color="white"/>
</linearGradient>
<clipPath id="clip0_54_1154">
<rect width="32" height="32" fill="white" transform="translate(0 0.00088501)"/>
</clipPath>
</defs>
</svg>
