<svg width="40" height="13" viewBox="0 0 40 13" fill="none" xmlns="http://www.w3.org/2000/svg">
<mask id="mask0_159_1444" style="mask-type:alpha" maskUnits="userSpaceOnUse" x="0" y="0" width="40" height="13">
<path fill-rule="evenodd" clip-rule="evenodd" d="M20.6834 4.18284C20.6607 5.93715 22.2805 6.91619 23.5007 7.49822C24.7545 8.09548 25.1756 8.47843 25.1708 9.01246C25.1612 9.82988 24.1707 10.1906 23.2435 10.2046C21.6261 10.2292 20.6858 9.77719 19.9381 9.43522L19.3555 12.1042C20.1056 12.4426 21.4945 12.7377 22.9349 12.7506C26.3157 12.7506 28.5277 11.1169 28.5397 8.58383C28.5528 5.36916 23.9972 5.19115 24.0283 3.75421C24.0391 3.31856 24.4638 2.85364 25.3945 2.73536C25.8551 2.67563 27.1268 2.62996 28.5684 3.27992L29.1342 0.69764C28.359 0.421261 27.3625 0.156592 26.1219 0.156592C22.9397 0.156592 20.7013 1.81253 20.6834 4.18284ZM34.5724 0.379061C33.9551 0.379061 33.4347 0.731562 33.2026 1.27261L28.373 12.5609H31.7515L32.4238 10.7421H36.5523L36.9423 12.5609H39.92L37.3216 0.379061H34.5724ZM35.0448 3.66988L36.0198 8.2442H33.3496L35.0448 3.66988ZM16.5888 0.379061L13.9258 12.5609L17.1451 12.5609L19.8069 0.379061L16.5888 0.379061ZM11.8256 0.379061L8.47469 8.67045L7.11925 1.62043C6.96014 0.833448 6.33207 0.379061 5.63461 0.379061H0.156643L0.0800781 0.732734C1.20462 0.971639 2.4823 1.35693 3.25632 1.76916C3.73006 2.02094 3.86525 2.24111 4.02077 2.83954L6.58808 12.5609H9.99043L15.2064 0.379061H11.8256Z" fill="white"/>
</mask>
<g mask="url(#mask0_159_1444)">
<path d="M-4.0918 1.66061L35.1624 -12.491L44.0926 11.2469L4.83877 25.3984" fill="url(#paint0_linear_159_1444)"/>
</g>
<defs>
<linearGradient id="paint0_linear_159_1444" x1="-4.00781" y1="-0.837205" x2="26.3177" y2="-18.5182" gradientUnits="userSpaceOnUse">
<stop stop-color="#222357"/>
<stop offset="1" stop-color="#254AA5"/>
</linearGradient>
</defs>
</svg>
